<?xml version="1.0" encoding="iso-8859-1"?>
<!-- Generator: Adobe Illustrator 19.0.0, SVG Export Plug-In . SVG Version: 6.00 Build 0)  -->
<svg version="1.1" id="Capa_1" xmlns="http://www.w3.org/2000/svg" xmlns:xlink="http://www.w3.org/1999/xlink" x="0px" y="0px"
	 viewBox="0 0 60 60" style="enable-background:new 0 0 60 60;" xml:space="preserve">
<g>
	<g>
		<path d="M60,14h-6v4h-2v-4h-2V9.655l8.362-3.644L59,5.706l-0.03-1.355l-9.563-4.264c-0.003-0.001-0.005-0.001-0.008-0.002
			c-0.06-0.026-0.128-0.03-0.194-0.044s-0.131-0.039-0.197-0.04C49.005,0.002,49.003,0,49,0c-0.042,0-0.077,0.019-0.118,0.024
			c-0.087,0.011-0.174,0.019-0.255,0.051c-0.061,0.025-0.11,0.067-0.164,0.102c-0.053,0.035-0.11,0.061-0.156,0.105
			c-0.063,0.061-0.106,0.137-0.151,0.212c-0.021,0.035-0.053,0.06-0.07,0.098c-0.001,0.003-0.001,0.006-0.002,0.008
			c-0.027,0.061-0.03,0.131-0.044,0.198c-0.013,0.065-0.038,0.128-0.039,0.192C48.002,0.994,48,0.997,48,1v8.009
			c0,0.002,0,0.003,0,0.005V14h-2v4h-2v-4h-6v11h2v6h-3v-9h-6v4h-2v-4h-6v9h-3v-6h2V14h-6v4h-2v-4h-2V9.656l8.393-3.645l0.638-0.305
			L21,4.35l-9.594-4.264c-0.003-0.001-0.005-0.001-0.008-0.002c-0.057-0.025-0.123-0.028-0.185-0.042
			C11.144,0.027,11.076,0.001,11.007,0C11.005,0.001,11.003,0,11,0c-0.039,0-0.073,0.018-0.111,0.022
			c-0.089,0.01-0.179,0.019-0.262,0.053c-0.061,0.025-0.11,0.067-0.165,0.103c-0.053,0.035-0.11,0.061-0.156,0.105
			c-0.06,0.058-0.101,0.132-0.145,0.204c-0.023,0.038-0.057,0.065-0.076,0.107c-0.001,0.003-0.001,0.006-0.002,0.009
			c-0.025,0.058-0.028,0.125-0.042,0.188c-0.014,0.067-0.04,0.133-0.04,0.2C10.002,0.995,10,0.997,10,1v8.008
			c0,0.001,0,0.002,0,0.004V14H8v4H6v-4H0v11h2v35h4h10h2h2h3h14h3h2h2h10h4V25h2V14z M50,7.474V2.541l5.595,2.495L50,7.474z
			 M12,7.476V2.539l5.618,2.497L12,7.476z M2,16h2v4h6v-4h2v4h6v-4h2v7H2V16z M8,58V48c0-1.654,1.346-3,3-3s3,1.346,3,3v10H8z
			 M18,58h-2V48c0-2.757-2.243-5-5-5s-5,2.243-5,5v10H4V25h14v6V58z M25,58V43c0-2.757,2.243-5,5-5s5,2.243,5,5v15H25z M40,58h-3V43
			c0-3.86-3.141-7-7-7s-7,3.14-7,7v15h-3V33h5v-9h2v4h6v-4h2v9h5V58z M46,58V48c0-1.654,1.346-3,3-3s3,1.346,3,3v10H46z M56,58h-2
			V48c0-2.757-2.243-5-5-5s-5,2.243-5,5v10h-2V31v-6h14V58z M58,23H40v-7h2v4h6v-4h2v4h6v-4h2V23z"/>
		<path d="M6,38h10v-9H6V38z M8,31h6v5H8V31z"/>
		<path d="M54,29H44v9h10V29z M52,36h-6v-5h6V36z"/>
	</g>
</g>
<g>
</g>
<g>
</g>
<g>
</g>
<g>
</g>
<g>
</g>
<g>
</g>
<g>
</g>
<g>
</g>
<g>
</g>
<g>
</g>
<g>
</g>
<g>
</g>
<g>
</g>
<g>
</g>
<g>
</g>
</svg>
