<?xml version="1.0" encoding="iso-8859-1"?>
<!-- Generator: Adobe Illustrator 19.0.0, SVG Export Plug-In . SVG Version: 6.00 Build 0)  -->
<svg version="1.1" id="Layer_1" xmlns="http://www.w3.org/2000/svg" xmlns:xlink="http://www.w3.org/1999/xlink" x="0px" y="0px"
	 viewBox="0 0 512 512" style="enable-background:new 0 0 512 512;" xml:space="preserve">
<g>
	<g>
		<path d="M503.478,213.389h-59.656c-4.706,0-8.522,3.816-8.522,8.522v51.134h-51.798V153.733h17.044
			c4.706,0,8.522-3.816,8.522-8.522V42.944c0-4.706-3.816-8.522-8.522-8.522h-51.133c-4.706,0-8.522,3.816-8.522,8.522v34.089
			h-17.044V42.944c0-4.706-3.816-8.522-8.522-8.522h-42.611c-4.706,0-8.522,3.816-8.522,8.522v34.089h-17.044V42.944
			c0-4.706-3.816-8.522-8.522-8.522h-42.611c-4.706,0-8.522,3.816-8.522,8.522v34.089h-17.044V42.944
			c0-4.706-3.816-8.522-8.522-8.522h-51.134c-4.706,0-8.522,3.816-8.522,8.522v102.267c0,4.706,3.816,8.522,8.522,8.522h17.044
			v119.312H76.7v-51.134c0-4.706-3.816-8.522-8.522-8.522H8.522c-4.706,0-8.522,3.816-8.522,8.522v247.145
			c0,4.706,3.816,8.522,8.522,8.522h127.834h59.656h119.312h59.656c0.114,0,0.219-0.029,0.332-0.033
			c0.113,0.005,0.218,0.033,0.332,0.033h127.834c4.706,0,8.522-3.816,8.522-8.522V221.911
			C512,217.205,508.184,213.389,503.478,213.389z M127.834,460.534H17.044V230.433h42.611v51.134c0,4.706,3.816,8.522,8.522,8.522
			h59.656V460.534z M306.801,460.534H204.534V358.257c0-23.49,19.109-42.601,42.596-42.601h17.076
			c23.487,0,42.596,19.111,42.596,42.601V460.534z M366.457,460.534h-42.611V358.257c0-32.888-26.755-59.645-59.64-59.645H247.13
			c-32.885,0-59.64,26.757-59.64,59.645v102.277h-42.611V281.567V153.733h221.579V460.534z M374.979,136.688H136.356h-17.044V51.466
			h34.089v34.089c0,4.706,3.816,8.522,8.522,8.522h34.089c4.706,0,8.522-3.816,8.522-8.522V51.466h25.567v34.089
			c0,4.706,3.816,8.522,8.522,8.522h34.089c4.706,0,8.522-3.816,8.522-8.522V51.466h25.567v34.089c0,4.706,3.816,8.522,8.522,8.522
			h34.089c4.706,0,8.522-3.816,8.522-8.522V51.466h34.089v85.223H374.979z M494.956,460.534H384.166V290.089h59.656
			c4.706,0,8.522-3.816,8.522-8.522v-51.134h42.611V460.534z"/>
	</g>
</g>
<g>
	<g>
		<path d="M76.621,324.178h-8.364c-18.84,0-34.168,15.28-34.168,34.062v51.161c0,4.706,3.816,8.522,8.522,8.522h59.656
			c4.706,0,8.522-3.816,8.522-8.522V358.24C110.789,339.458,95.461,324.178,76.621,324.178z M93.745,400.878H51.134V358.24
			c0-9.384,7.682-17.017,17.124-17.017h8.364c9.442,0,17.124,7.634,17.124,17.017V400.878z"/>
	</g>
</g>
<g>
	<g>
		<path d="M443.078,324.178h-8.364c-18.84,0-34.168,15.28-34.168,34.062v51.161c0,4.706,3.816,8.522,8.522,8.522h59.656
			c4.706,0,8.522-3.816,8.522-8.522V358.24C477.246,339.458,461.918,324.178,443.078,324.178z M460.202,400.878h-42.611V358.24
			c0-9.384,7.682-17.017,17.124-17.017h8.364c9.442,0,17.124,7.634,17.124,17.017V400.878z"/>
	</g>
</g>
<g>
	<g>
		<path d="M315.244,170.778h-8.364c-18.84,0-34.168,15.28-34.168,34.062V256c0,4.706,3.816,8.522,8.522,8.522h59.656
			c4.706,0,8.522-3.816,8.522-8.522v-51.161C349.412,186.058,334.085,170.778,315.244,170.778z M332.368,247.478h-42.611v-42.638
			c0-9.384,7.682-17.017,17.124-17.017h8.364c9.442,0,17.124,7.634,17.124,17.017V247.478z"/>
	</g>
</g>
<g>
	<g>
		<path d="M204.455,170.778h-8.364c-18.84,0-34.168,15.28-34.168,34.062V256c0,4.706,3.816,8.522,8.522,8.522h59.656
			c4.706,0,8.522-3.816,8.522-8.522v-51.161C238.623,186.058,223.295,170.778,204.455,170.778z M221.579,247.478h-42.611v-42.638
			c0-9.384,7.682-17.017,17.124-17.017h8.364c9.442,0,17.124,7.634,17.124,17.017V247.478z"/>
	</g>
</g>
<g>
</g>
<g>
</g>
<g>
</g>
<g>
</g>
<g>
</g>
<g>
</g>
<g>
</g>
<g>
</g>
<g>
</g>
<g>
</g>
<g>
</g>
<g>
</g>
<g>
</g>
<g>
</g>
<g>
</g>
</svg>
