<?xml version="1.0" encoding="iso-8859-1"?>
<!-- Generator: Adobe Illustrator 19.0.0, SVG Export Plug-In . SVG Version: 6.00 Build 0)  -->
<svg version="1.1" id="Capa_1" xmlns="http://www.w3.org/2000/svg" xmlns:xlink="http://www.w3.org/1999/xlink" x="0px" y="0px"
	 viewBox="0 0 512 512" style="enable-background:new 0 0 512 512;" xml:space="preserve">
<g>
	<g>
		<path d="M503.926,453.918h-24.265c-3.949-26.491-23.664-47.444-49.197-53.279v-11.42h70.95c3.999,0,7.473-1.875,9.291-5.016
			c1.819-3.141,1.716-7.086-0.274-10.553l-32.266-56.236h3.302c3.999,0,7.473-1.875,9.291-5.016
			c1.819-3.141,1.716-7.086-0.274-10.554l-11.235-19.58c-2.062-3.593-6.645-4.832-10.238-2.772
			c-3.592,2.061-4.834,6.646-2.773,10.238l7.278,12.684h-3.302c-3.999,0-7.471,1.875-9.29,5.015s-1.717,7.085,0.273,10.555
			l12.351,21.526c-0.773,0.541-1.534,1.1-2.271,1.689c-8.155-6.488-18.343-10.105-28.889-10.105
			c-10.548,0-20.738,3.619-28.894,10.11c-0.676-0.538-1.371-1.049-2.074-1.546l-12.761-22.242h3.301
			c3.999,0,7.473-1.875,9.291-5.016c1.819-3.141,1.716-7.086-0.274-10.553l-33.339-58.106h4.375c3.999,0,7.473-1.875,9.291-5.016
			c1.819-3.141,1.716-7.086-0.274-10.553l-14.795-25.786l31.106-54.214l46.229,80.57h-4.374c-3.998,0-7.471,1.874-9.29,5.015
			c-1.819,3.14-1.717,7.085,0.273,10.555l9.423,16.423c2.061,3.593,6.646,4.834,10.238,2.773c3.593-2.061,4.835-6.645,2.773-10.238
			l-5.467-9.528h4.374c3.999,0,7.473-1.875,9.291-5.016c1.819-3.141,1.716-7.086-0.274-10.553l-54.202-94.466
			c-1.996-3.479-5.357-5.557-8.992-5.558c-0.001,0-0.001,0-0.001,0c-3.635,0-6.997,2.077-8.995,5.557l-30.759,53.61l-30.759-53.609
			c-1.996-3.48-5.358-5.558-8.994-5.558c-3.635,0-6.997,2.077-8.994,5.557l-27.668,48.224l-16.453-28.674h3.203
			c3.999,0,7.473-1.875,9.291-5.016c1.819-3.141,1.716-7.087-0.274-10.553l-51.093-89.047c-1.996-3.48-5.358-5.558-8.994-5.558
			c-3.635,0-6.997,2.077-8.994,5.557l-51.093,89.049c-1.989,3.468-2.091,7.414-0.272,10.554c1.819,3.14,5.292,5.015,9.29,5.015
			h3.202l-13.056,22.755l-35.598-62.041c-1.996-3.479-5.357-5.557-8.992-5.558c-0.001,0-0.001,0-0.001,0
			c-3.635,0-6.997,2.077-8.995,5.557L53.442,216.621c-1.989,3.468-2.091,7.414-0.272,10.554c1.819,3.14,5.292,5.015,9.29,5.015
			h6.146l-36.696,63.955c-1.989,3.468-2.091,7.414-0.273,10.554c1.819,3.14,5.292,5.015,9.29,5.015h4.989l-13.348,23.263
			c-0.004,0.008-0.009,0.016-0.013,0.023l-22.177,38.65c-1.989,3.468-2.091,7.414-0.273,10.554c1.819,3.14,5.292,5.015,9.29,5.015
			h78.815v20.198c-7.849-3.749-16.55-5.809-25.561-5.809c-29.72,0-54.306,21.581-58.852,50.31H7.5c-4.142,0-7.5,3.358-7.5,7.5
			s3.358,7.5,7.5,7.5h13.071h483.354c4.142,0,7.5-3.358,7.5-7.5S508.068,453.918,503.926,453.918z M442.389,346.093
			c8.874,0,17.374,3.788,23.322,10.391c1.422,1.579,3.447,2.481,5.573,2.481c2.125,0,4.151-0.902,5.573-2.481
			c1.289-1.431,2.697-2.722,4.204-3.882l12.403,21.617h-62.256c-0.096-0.189-0.176-0.382-0.284-0.569l-10.601-18.476
			C426.18,349.383,434.121,346.093,442.389,346.093z M399.684,349.343l14.273,24.876H249.975v-10.407h84.645
			c3.999,0,7.473-1.875,9.291-5.016c1.775-3.066,1.706-6.896-0.148-10.302c3.77-1.565,7.845-2.401,12.004-2.401
			c8.874,0,17.374,3.788,23.322,10.391c1.422,1.58,3.448,2.481,5.573,2.481c2.125,0,4.151-0.902,5.573-2.481
			C392.924,353.5,396.135,351.095,399.684,349.343z M415.464,389.22v9.788c-5.564,0.046-11.016,0.818-16.245,2.24V389.22H415.464z
			 M384.218,389.22v18.232c-8.738,4.985-16.302,11.996-21.954,20.567c-3.455-2.638-7.265-4.738-11.307-6.255V389.22h0H384.218z
			 M335.956,389.22v29.727c-0.208-0.003-0.415-0.013-0.623-0.013c-5.486,0-10.749,1.014-15.621,2.851V389.22H335.956z
			 M163.43,332.27c1.422,1.579,3.448,2.481,5.573,2.481c2.125,0,4.151-0.902,5.573-2.481c5.592-6.21,13.583-9.77,21.927-9.77
			s16.335,3.561,21.927,9.77c1.422,1.579,3.448,2.481,5.573,2.481c2.125,0,4.151-0.902,5.573-2.481
			c5.592-6.21,13.583-9.77,21.927-9.77c8.343,0,16.335,3.561,21.927,9.77c1.422,1.579,3.448,2.481,5.573,2.481
			c2.125,0,4.151-0.902,5.573-2.481c5.592-6.21,13.583-9.77,21.927-9.77c1.798,0,3.59,0.183,5.36,0.51l14.805,25.802H127.033
			l15.088-26.295C150.209,322.706,157.98,326.22,163.43,332.27z M150.229,308.382l9.922-17.293h133.399l9.496,16.549
			c-8.779,0.689-17.153,3.973-24.042,9.383c-7.788-6.117-17.475-9.523-27.5-9.523s-19.712,3.406-27.5,9.523
			c-7.788-6.117-17.475-9.523-27.5-9.523s-19.712,3.406-27.5,9.523C163.509,312.706,157.066,309.753,150.229,308.382z
			 M296.822,223.058c3.999,0,7.473-1.875,9.291-5.016c1.819-3.141,1.716-7.087-0.274-10.553L299.821,197l28.013-48.831
			l46.229,80.569h-4.374c-3.998,0-7.471,1.874-9.29,5.015c-1.819,3.14-1.717,7.085,0.273,10.555l33.339,58.106h-3.301
			c-3.998,0-7.471,1.875-9.29,5.015s-1.717,7.085,0.273,10.555l10.516,18.328c-2.665,1.381-5.197,3.01-7.549,4.887
			c-8.156-6.489-18.343-10.106-28.89-10.106c-6.797,0-13.441,1.512-19.491,4.319l-25.431-44.323h4.875
			c3.999,0,7.473-1.875,9.291-5.016c1.819-3.141,1.716-7.086-0.274-10.553l-30.102-52.463H296.822z M226.852,63.099l27.495,47.92
			c-1.561,0.871-3.064,1.841-4.495,2.919c-6.751-5.072-15.029-7.887-23.587-7.887c-8.56,0-16.84,2.815-23.592,7.891
			c-1.157-0.871-2.376-1.653-3.622-2.391L226.852,63.099z M191.593,124.551c2.036,1.229,3.898,2.746,5.505,4.53
			c1.422,1.579,3.448,2.481,5.574,2.481c2.125,0,4.151-0.902,5.573-2.482c4.595-5.103,11.163-8.029,18.02-8.029
			c6.857,0,13.424,2.927,18.02,8.029c1.422,1.58,3.448,2.482,5.573,2.482c2.125,0,4.151-0.902,5.573-2.481
			c1.845-2.049,4.007-3.742,6.384-5.045l8.156,14.214h-86.239L191.593,124.551z M196.277,153.251h61.147l16.215,28.261
			c-0.696,0.455-1.378,0.933-2.043,1.433c-6.751-5.077-15.033-7.893-23.594-7.893s-16.842,2.816-23.593,7.892
			c-6.752-5.075-15.033-7.892-23.593-7.892c-7.218,0-14.233,2.009-20.304,5.679L196.277,153.251z M170.959,197.379
			c0.229,0.235,0.469,0.459,0.689,0.703c1.422,1.58,3.448,2.482,5.573,2.482c2.125,0,4.151-0.902,5.573-2.482
			c4.595-5.102,11.163-8.029,18.02-8.029s13.424,2.927,18.02,8.03c1.422,1.579,3.448,2.481,5.573,2.481
			c2.125,0,4.151-0.902,5.573-2.482c4.595-5.102,11.163-8.029,18.02-8.029s13.424,2.927,18.02,8.029
			c1.422,1.58,3.448,2.482,5.573,2.482c2.126,0,4.151-0.902,5.573-2.482c1.185-1.316,2.521-2.49,3.961-3.517l7.74,13.49h-23.864
			c-4.142,0-7.5,3.358-7.5,7.5c0,4.142,3.358,7.5,7.5,7.5h12.337l9.889,17.235c-3.299,1.3-6.417,3.027-9.259,5.175
			c-6.804-5.126-15.154-7.97-23.787-7.97c-8.635,0-16.987,2.846-23.792,7.975c-6.805-5.129-15.157-7.975-23.792-7.975
			s-16.987,2.846-23.792,7.975c-4.529-3.414-9.744-5.809-15.272-7.031l8.827-15.384h53.642c4.142,0,7.5-3.358,7.5-7.5
			c0-4.142-3.358-7.5-7.5-7.5h-65.171L170.959,197.379z M177.233,260.616c1.422,1.58,3.448,2.481,5.573,2.481
			s4.151-0.902,5.573-2.481c4.646-5.16,11.287-8.119,18.219-8.119c6.932,0,13.572,2.959,18.219,8.119
			c1.422,1.579,3.448,2.481,5.573,2.481c2.126,0,4.151-0.902,5.573-2.481c4.646-5.16,11.287-8.119,18.219-8.119
			c6.932,0,13.573,2.959,18.219,8.119c1.422,1.579,3.448,2.481,5.573,2.481c2.125,0,4.151-0.902,5.573-2.481
			c3.061-3.399,6.959-5.836,11.264-7.106l12.955,22.579H145.933l13.529-23.58C166.232,252.634,172.688,255.567,177.233,260.616z
			 M85.572,232.76c1.991-3.468,2.094-7.414,0.275-10.555c-1.818-3.141-5.292-5.016-9.291-5.016H70.41l50.926-88.757l35.945,62.647
			l-9.415,16.41c-1.989,3.468-2.091,7.414-0.273,10.554c1.819,3.14,5.292,5.015,9.29,5.015h2.185l-30.102,52.464
			c-1.989,3.468-2.091,7.414-0.273,10.554c1.819,3.14,5.292,5.015,9.29,5.015h4.876l-26.566,46.301
			c-8.154-5.415-17.799-8.398-27.744-8.398c-11.601,0-22.799,4.047-31.69,11.294c-2.261-1.844-4.68-3.486-7.222-4.911l13.249-23.09
			c1.991-3.468,2.094-7.414,0.275-10.555c-1.818-3.141-5.292-5.016-9.291-5.016h-4.99L85.572,232.76z M29.037,453.918
			c4.338-20.323,22.201-35.309,43.614-35.309c17.508,0,33.481,10.379,40.693,26.442c1.067,2.377,3.292,4.03,5.876,4.366
			c2.583,0.338,5.157-0.693,6.796-2.719c5.054-6.246,12.535-9.828,20.523-9.828c11.189,0,20.856,7.042,24.688,17.047H29.037z
			 M113.212,419.63v-30.41h0.001h16.245v36.34c-2.615,1.188-5.108,2.643-7.434,4.36C119.468,426.136,116.503,422.694,113.212,419.63
			z M203.729,453.918h-16.854c-2.034-8.672-6.758-16.274-13.227-21.894c9.134-4.271,19.296-7.345,30.081-9.029V453.918z
			 M203.729,374.22h-9.726c-4.142,0-7.5,3.358-7.5,7.5c0,4.142,3.358,7.5,7.5,7.5h9.726v18.634
			c-16.845,2.357-32.499,7.76-45.823,15.617c-3.619-1.038-7.43-1.601-11.366-1.601c-0.697,0-1.391,0.023-2.082,0.058v-32.708h14.544
			c4.142,0,7.5-3.358,7.5-7.5c0-4.142-3.358-7.5-7.5-7.5H27.347l14.817-25.824c3.403,1.886,6.499,4.324,9.119,7.234
			c1.422,1.579,3.448,2.481,5.574,2.481c2.125,0,4.151-0.902,5.573-2.481c6.659-7.396,16.179-11.637,26.117-11.637
			c7.399,0,14.563,2.355,20.491,6.607c-0.899,2.818-0.664,5.751,0.753,8.198c1.819,3.14,5.292,5.015,9.29,5.015h84.646V374.22z
			 M234.975,453.918h-16.245v-90.105h16.245V453.918z M291.849,453.918h-41.874v-29.449c17.363,3.896,32.727,11.499,44.266,21.883
			C293.228,448.77,292.429,451.302,291.849,453.918z M304.712,431.192c-0.81,0.769-1.586,1.575-2.337,2.403
			c-13.976-11.882-32.151-20.39-52.4-24.429V389.22h54.737V431.192z M307.4,453.918c4.028-11.673,15.082-19.984,27.933-19.984
			c8.929,0,17.29,4.003,22.939,10.983c1.639,2.026,4.218,3.057,6.796,2.719c2.584-0.336,4.809-1.989,5.876-4.366
			c7.982-17.781,25.664-29.271,45.047-29.271c23.997,0,43.968,16.997,48.454,39.92H307.4z"/>
	</g>
</g>
<g>
</g>
<g>
</g>
<g>
</g>
<g>
</g>
<g>
</g>
<g>
</g>
<g>
</g>
<g>
</g>
<g>
</g>
<g>
</g>
<g>
</g>
<g>
</g>
<g>
</g>
<g>
</g>
<g>
</g>
</svg>
