<?xml version="1.0" encoding="iso-8859-1"?>
<!-- Generator: Adobe Illustrator 19.0.0, SVG Export Plug-In . SVG Version: 6.00 Build 0)  -->
<svg version="1.1" id="Layer_1" xmlns="http://www.w3.org/2000/svg" xmlns:xlink="http://www.w3.org/1999/xlink" x="0px" y="0px"
	 viewBox="0 0 512 512" style="enable-background:new 0 0 512 512;" xml:space="preserve">
<g>
	<g>
		<path d="M503.983,395.04h-12.812L403.17,263.038l-11.077-49.846c-0.814-3.668-4.068-6.278-7.825-6.278
			c-3.757,0-7.011,2.609-7.825,6.278l-1.626,7.314l-72.263-108.394c-4.67-7.003-12.483-11.185-20.9-11.185
			s-16.231,4.182-20.9,11.185l-38.957,58.436l-4.753-7.131c-4.67-7.003-12.483-11.185-20.9-11.185s-16.231,4.182-20.9,11.185
			l-57.298,85.947l-8.039-36.176c-0.815-3.668-4.068-6.278-7.825-6.278s-7.011,2.609-7.825,6.278L70.35,320.757l-49.522,74.282
			H8.017c-4.427,0-8.017,3.589-8.017,8.017c0,4.427,3.589,8.017,8.017,8.017h495.967c4.427,0,8.017-3.589,8.017-8.017
			C512,398.628,508.411,395.04,503.983,395.04z M384.267,251.886l24.21,108.949h-48.421L384.267,251.886z M369.999,242.185
			l-4.826,21.716l-8.447-12.671c-2.455-3.684-7.434-4.68-11.117-2.223c-3.684,2.455-4.68,7.433-2.223,11.116l16.97,25.455
			l-15.469,69.609L247.502,209.11l21.323-21.323l18.214,18.214c6.459,6.46,16.971,6.46,23.43,0l21.244-21.244L369.999,242.185z
			 M274.093,121.008c1.715-2.572,4.47-4.046,7.56-4.046s5.846,1.474,7.56,4.046l33.432,50.147l-23.511,23.511
			c-0.208,0.207-0.547,0.207-0.756,0l-23.882-23.882c-3.131-3.131-8.207-3.131-11.337,0l-24.725,24.725l-7.003-10.505
			L274.093,121.008z M188.582,172.315c1.715-2.572,4.47-4.046,7.56-4.046s5.846,1.474,7.56,4.046l30.011,45.016l-20.091,20.091
			c-0.038,0.038-0.156,0.156-0.378,0.156s-0.339-0.118-0.378-0.156l-11.056-11.056c-3.131-3.131-8.207-3.131-11.337,0
			l-27.421,27.421l-1.958-6.853c-0.983-3.442-4.129-5.814-7.708-5.814c-1.481,0-2.876,0.424-4.086,1.145l-4.41-4.41L188.582,172.315
			z M176.963,360.835h-34.248l-5.646-25.407l16.318-57.112L176.963,360.835z M135.82,251.458l6.662,6.662l-12.708,44.48
			l-7.012-31.555L135.82,251.458z M102.079,251.886l24.21,108.949H77.869L102.079,251.886z M94.063,395.04H40.098l20.618-30.926
			l-0.667,2.999c-0.528,2.374,0.05,4.858,1.572,6.755c1.521,1.896,3.821,3,6.253,3h26.188V395.04z M145.37,395.04h-35.273v-18.171
			h35.273V395.04z M161.403,395.04v-18.171h26.188c2.516,0,4.885-1.18,6.401-3.188c1.515-2.008,1.999-4.611,1.308-7.03
			l-27.208-95.228l28.051-28.051l5.387,5.387c6.459,6.46,16.971,6.46,23.43,0l17.823-17.824L352.187,395.04H161.403z
			 M376.251,395.04h-4.795l-12.114-18.171h16.909V395.04z M392.284,395.04v-18.171h26.188c2.432,0,4.732-1.104,6.253-3
			c1.522-1.896,2.1-4.381,1.572-6.755l-13.493-60.72l59.098,88.647H392.284z"/>
	</g>
</g>
<g>
	<g>
		<path d="M249.925,270.341l-4.361-6.541c-2.455-3.683-7.433-4.679-11.118-2.223c-3.683,2.456-4.679,7.433-2.223,11.118l4.361,6.542
			c1.545,2.316,4.086,3.57,6.677,3.57c1.529,0,3.073-0.436,4.44-1.348C251.386,279.002,252.381,274.025,249.925,270.341z"/>
	</g>
</g>
<g>
	<g>
		<path d="M301.239,347.313l-34.211-51.318c-2.455-3.683-7.433-4.679-11.116-2.223c-3.685,2.455-4.68,7.433-2.223,11.117
			l34.211,51.318c1.545,2.317,4.086,3.571,6.677,3.571c1.529,0,3.073-0.436,4.439-1.348
			C302.7,355.974,303.695,350.997,301.239,347.313z"/>
	</g>
</g>
<g>
	<g>
		<path d="M339.624,225.577l-4.361-6.542c-2.454-3.683-7.432-4.679-11.117-2.223c-3.683,2.455-4.68,7.433-2.223,11.117l4.361,6.542
			c1.545,2.317,4.086,3.571,6.677,3.571c1.529,0,3.073-0.436,4.439-1.348C341.084,234.238,342.08,229.26,339.624,225.577z"/>
	</g>
</g>
<g>
</g>
<g>
</g>
<g>
</g>
<g>
</g>
<g>
</g>
<g>
</g>
<g>
</g>
<g>
</g>
<g>
</g>
<g>
</g>
<g>
</g>
<g>
</g>
<g>
</g>
<g>
</g>
<g>
</g>
</svg>
